<?xml version="1.0" encoding="UTF-8" standalone="no"?> <!-- Created with Vectornator (http://vectornator.io/) --><!DOCTYPE svg PUBLIC "-//W3C//DTD SVG 1.1//EN" "http://www.w3.org/Graphics/SVG/1.1/DTD/svg11.dtd">
<svg height="100%" stroke-miterlimit="10" style="fill-rule:nonzero;clip-rule:evenodd;stroke-linecap:round;stroke-linejoin:round;" version="1.1" viewBox="0 0 159.393 148.871" width="100%" xml:space="preserve" xmlns="http://www.w3.org/2000/svg" xmlns:vectornator="http://vectornator.io" xmlns:xlink="http://www.w3.org/1999/xlink">
<metadata>
<vectornator:setting key="IsTimeLapseWatermarkDisabled" value="false"/>
<vectornator:setting key="UndoHistoryDisabled" value="true"/>
<vectornator:setting key="VNDimensionsVisible" value="true"/>
<vectornator:setting key="VNSnapToGuides" value="true"/>
<vectornator:setting key="WDCMYKEnabledKey" value="false"/>
<vectornator:setting key="WDDisplayWhiteBackground" value="false"/>
<vectornator:setting key="WDDynamicGuides" value="false"/>
<vectornator:setting key="WDGuidesVisible" value="true"/>
<vectornator:setting key="WDIsolateActiveLayer" value="false"/>
<vectornator:setting key="WDOutlineMode" value="false"/>
<vectornator:setting key="WDRulersVisible" value="true"/>
<vectornator:setting key="WDSnapToEdges" value="false"/>
<vectornator:setting key="WDSnapToGrid" value="false"/>
<vectornator:setting key="WDSnapToPoints" value="false"/>
<vectornator:setting key="WDUnits" value="Points"/>
</metadata>
<defs/>
<g id="Untitled" vectornator:layerName="Untitled">
<g opacity="1">
<path d="M136.425 72.0555C134.947 62.9745 124.387 58.3283 115.94 62.1298L107.07 66.1421C98.6224 69.9436 89.1198 69.9436 80.672 66.1421L71.8019 62.1298C63.3542 58.3283 52.7952 62.9745 51.3172 72.0555C51.1056 72.6887 51.1056 73.5335 51.1056 74.3783C51.1056 75.0115 51.1056 75.8563 51.3172 76.7011C52.7952 85.782 63.3549 90.4283 71.8019 86.6268L80.672 82.6145C89.1198 78.813 98.6224 78.813 107.07 82.6145L115.94 86.6268C124.388 90.4283 134.947 85.782 136.425 76.7011C136.636 76.0678 136.636 75.2231 136.636 74.3783C136.636 73.7451 136.636 72.9003 136.425 72.0555Z" fill="#fd6262" fill-rule="evenodd" opacity="1" stroke="none"/>
<path d="M44.5597 47.3469L53.4298 43.3346C61.8776 39.5331 71.3802 39.5331 79.828 43.3346L88.6981 47.3469C97.1459 51.1484 107.705 46.5021 109.183 37.4212C109.394 36.7879 109.394 35.9431 109.394 35.0984C109.394 34.4651 109.394 33.6204 109.183 32.7756C107.705 23.6946 97.1451 19.0484 88.6981 22.8498L79.828 26.8622C71.3802 30.6637 61.8776 30.6637 53.4298 26.8622L44.5597 22.8498C36.1119 19.0484 25.553 23.4831 24.075 32.7756C23.8634 33.4088 23.8634 34.2536 23.8634 35.0984C23.8634 35.7323 23.8634 36.5764 24.075 37.4212C25.553 46.5021 36.1119 51.1484 44.5597 47.3469Z" fill="#fd6262" fill-rule="evenodd" opacity="1" stroke="none"/>
<path d="M88.6974 100.988L79.8273 105C71.3795 108.802 61.8769 108.802 53.4291 105L44.559 100.988C36.1112 97.1865 25.5523 101.833 24.0743 110.914C23.8627 111.547 23.8627 112.392 23.8627 113.237C23.8627 113.87 23.8627 114.715 24.0743 115.559C25.5523 124.64 36.1119 129.287 44.559 125.485L53.4291 121.473C61.8769 117.671 71.3795 117.671 79.8273 121.473L88.6974 125.485C97.1452 129.287 107.704 124.64 109.182 115.559C109.393 114.925 109.393 114.081 109.393 113.237C109.393 112.603 109.393 111.759 109.182 110.914C107.704 101.832 97.1444 97.1865 88.6974 100.988Z" fill="#fd6262" fill-rule="evenodd" opacity="1" stroke="none"/>
</g>
</g>
</svg>
